<svg xmlns="http://www.w3.org/2000/svg" width="360" height="120" viewBox="0 0 360 120"><rect width="360" height="120" fill="#ffffff"/><line x1="20.0" y1="92.0" x2="340.0" y2="92.0" fill="none" stroke="#555555" stroke-width="3.5" stroke-linecap="round" stroke-linejoin="round"/><line x1="20.0" y1="92.0" x2="20.0" y2="50.0" fill="none" stroke="#1f6feb" stroke-width="4" stroke-linecap="round" stroke-linejoin="round"/><line x1="36.0" y1="92.0" x2="36.0" y2="72.0" fill="none" stroke="#555555" stroke-width="3" stroke-linecap="round" stroke-linejoin="round"/><line x1="52.0" y1="92.0" x2="52.0" y2="72.0" fill="none" stroke="#555555" stroke-width="3" stroke-linecap="round" stroke-linejoin="round"/><line x1="68.0" y1="92.0" x2="68.0" y2="72.0" fill="none" stroke="#555555" stroke-width="3" stroke-linecap="round" stroke-linejoin="round"/><line x1="84.0" y1="92.0" x2="84.0" y2="72.0" fill="none" stroke="#555555" stroke-width="3" stroke-linecap="round" stroke-linejoin="round"/><line x1="100.0" y1="92.0" x2="100.0" y2="63.0" fill="none" stroke="#555555" stroke-width="3.5" stroke-linecap="round" stroke-linejoin="round"/><line x1="116.0" y1="92.0" x2="116.0" y2="72.0" fill="none" stroke="#555555" stroke-width="3" stroke-linecap="round" stroke-linejoin="round"/><line x1="132.0" y1="92.0" x2="132.0" y2="72.0" fill="none" stroke="#555555" stroke-width="3" stroke-linecap="round" stroke-linejoin="round"/><line x1="148.0" y1="92.0" x2="148.0" y2="72.0" fill="none" stroke="#555555" stroke-width="3" stroke-linecap="round" stroke-linejoin="round"/><line x1="164.0" y1="92.0" x2="164.0" y2="72.0" fill="none" stroke="#555555" stroke-width="3" stroke-linecap="round" stroke-linejoin="round"/><line x1="180.0" y1="92.0" x2="180.0" y2="50.0" fill="none" stroke="#1f6feb" stroke-width="4" stroke-linecap="round" stroke-linejoin="round"/><g transform="translate(180.0 30.0) scale(0.75) translate(0 -8)"><path d="M7,0 H-6 V7 H3 Q7,7 7,11.5 Q7,16 3,16 H-7" fill="none" stroke="#1f6feb" stroke-width="3.4" stroke-linecap="round" stroke-linejoin="round"/></g><line x1="196.0" y1="92.0" x2="196.0" y2="72.0" fill="none" stroke="#555555" stroke-width="3" stroke-linecap="round" stroke-linejoin="round"/><line x1="212.0" y1="92.0" x2="212.0" y2="72.0" fill="none" stroke="#555555" stroke-width="3" stroke-linecap="round" stroke-linejoin="round"/><line x1="228.0" y1="92.0" x2="228.0" y2="72.0" fill="none" stroke="#555555" stroke-width="3" stroke-linecap="round" stroke-linejoin="round"/><line x1="244.0" y1="92.0" x2="244.0" y2="72.0" fill="none" stroke="#555555" stroke-width="3" stroke-linecap="round" stroke-linejoin="round"/><line x1="260.0" y1="92.0" x2="260.0" y2="63.0" fill="none" stroke="#555555" stroke-width="3.5" stroke-linecap="round" stroke-linejoin="round"/><line x1="276.0" y1="92.0" x2="276.0" y2="72.0" fill="none" stroke="#555555" stroke-width="3" stroke-linecap="round" stroke-linejoin="round"/><line x1="292.0" y1="92.0" x2="292.0" y2="72.0" fill="none" stroke="#555555" stroke-width="3" stroke-linecap="round" stroke-linejoin="round"/><line x1="308.0" y1="92.0" x2="308.0" y2="72.0" fill="none" stroke="#555555" stroke-width="3" stroke-linecap="round" stroke-linejoin="round"/><line x1="324.0" y1="92.0" x2="324.0" y2="72.0" fill="none" stroke="#555555" stroke-width="3" stroke-linecap="round" stroke-linejoin="round"/><line x1="340.0" y1="92.0" x2="340.0" y2="50.0" fill="none" stroke="#1f6feb" stroke-width="4" stroke-linecap="round" stroke-linejoin="round"/><g transform="translate(340.0 30.0) scale(0.75) translate(0 -8)"><path d="M7,0 H-6 V7 H3 Q7,7 7,11.5 Q7,16 3,16 H-7" fill="none" stroke="#1f6feb" stroke-width="3.4" stroke-linecap="round" stroke-linejoin="round"/></g></svg>
