<svg xmlns="http://www.w3.org/2000/svg" viewBox="0 0 256 256" width="256" height="256">
<defs><linearGradient id="bg" x1="0" y1="0" x2="0" y2="1"><stop offset="0" stop-color="#07629e"/><stop offset="1" stop-color="#054478"/></linearGradient></defs>
<rect width="256" height="256" rx="6" fill="url(#bg)"/>
<path d="M0 0 H256 V46 L0 92 Z" fill="#ffffff" opacity="0.09"/>
<rect x="26" y="88" width="204" height="80" rx="10" fill="none" stroke="#ffffff" stroke-width="9"/>
<line x1="44.0" y1="98.0" x2="44.0" y2="138.0" stroke="#ffb020" stroke-width="7" stroke-linecap="round"/>
<line x1="54.5" y1="98.0" x2="54.5" y2="107.0" stroke="#ffffff" stroke-width="5" stroke-linecap="round"/>
<line x1="65.0" y1="98.0" x2="65.0" y2="114.0" stroke="#ffffff" stroke-width="5" stroke-linecap="round"/>
<line x1="75.5" y1="98.0" x2="75.5" y2="107.0" stroke="#ffffff" stroke-width="5" stroke-linecap="round"/>
<line x1="86.0" y1="98.0" x2="86.0" y2="122.0" stroke="#ffffff" stroke-width="5" stroke-linecap="round"/>
<line x1="96.5" y1="98.0" x2="96.5" y2="107.0" stroke="#ffffff" stroke-width="5" stroke-linecap="round"/>
<line x1="107.0" y1="98.0" x2="107.0" y2="114.0" stroke="#ffffff" stroke-width="5" stroke-linecap="round"/>
<line x1="117.5" y1="98.0" x2="117.5" y2="107.0" stroke="#ffffff" stroke-width="5" stroke-linecap="round"/>
<line x1="128.0" y1="98.0" x2="128.0" y2="130.0" stroke="#ffffff" stroke-width="7" stroke-linecap="round"/>
<line x1="138.5" y1="98.0" x2="138.5" y2="107.0" stroke="#ffffff" stroke-width="5" stroke-linecap="round"/>
<line x1="149.0" y1="98.0" x2="149.0" y2="114.0" stroke="#ffffff" stroke-width="5" stroke-linecap="round"/>
<line x1="159.5" y1="98.0" x2="159.5" y2="107.0" stroke="#ffffff" stroke-width="5" stroke-linecap="round"/>
<line x1="170.0" y1="98.0" x2="170.0" y2="122.0" stroke="#ffffff" stroke-width="5" stroke-linecap="round"/>
<line x1="180.5" y1="98.0" x2="180.5" y2="107.0" stroke="#ffffff" stroke-width="5" stroke-linecap="round"/>
<line x1="191.0" y1="98.0" x2="191.0" y2="114.0" stroke="#ffffff" stroke-width="5" stroke-linecap="round"/>
<line x1="201.5" y1="98.0" x2="201.5" y2="107.0" stroke="#ffffff" stroke-width="5" stroke-linecap="round"/>
<line x1="212.0" y1="98.0" x2="212.0" y2="138.0" stroke="#ffb020" stroke-width="7" stroke-linecap="round"/>
</svg>
