<svg xmlns="http://www.w3.org/2000/svg" width="1000" height="300" viewBox="0 0 1000 300" font-family="Arial, Segoe UI, sans-serif">
<rect width="1000" height="300" fill="#f5f7fa"/>
<rect x="40" y="50" width="260" height="110" rx="14" fill="none" stroke="#1f6feb" stroke-width="3"/><text x="170" y="113" font-size="24" fill="#1b1f24" text-anchor="middle" font-weight="700" >Parameters</text>
<rect x="370" y="50" width="260" height="110" rx="14" fill="none" stroke="#1b1f24" stroke-width="3"/><text x="500" y="98" font-size="24" fill="#1b1f24" text-anchor="middle" font-weight="700" >Plan</text><text x="500" y="128" font-size="24" fill="#1b1f24" text-anchor="middle" font-weight="400" >lines, arcs, labels</text>
<rect x="700" y="50" width="260" height="110" rx="14" fill="none" stroke="#1f6feb" stroke-width="3"/><text x="830" y="98" font-size="24" fill="#1b1f24" text-anchor="middle" font-weight="700" >Engrave</text><text x="830" y="128" font-size="24" fill="#1b1f24" text-anchor="middle" font-weight="400" >motion</text>
<line x1="300" y1="105" x2="362" y2="105" stroke="#1b1f24" stroke-width="3" stroke-linecap="round" /><polygon points="370,105 357.11,110.45 357.11,99.55" fill="#1b1f24"/>
<line x1="630" y1="105" x2="692" y2="105" stroke="#1b1f24" stroke-width="3" stroke-linecap="round" /><polygon points="700,105 687.11,110.45 687.11,99.55" fill="#1b1f24"/>
<text x="830" y="200" font-size="18" fill="#1b1f24" text-anchor="middle" font-weight="400" >tool, Rpm, Feed, Spindle On/Off</text>
<text x="830" y="224" font-size="18" fill="#1b1f24" text-anchor="middle" font-weight="400" >come from your program</text>
<line x1="500" y1="160" x2="500" y2="200" stroke="#9aa4b2" stroke-width="3" stroke-linecap="round" stroke-dasharray="10 8"/><polygon points="500,208 494.55,195.11 505.45,195.11" fill="#9aa4b2"/>
<rect x="330" y="210" width="340" height="70" rx="14" fill="none" stroke="#9aa4b2" stroke-width="3" stroke-dasharray="10 8"/><text x="500" y="253" font-size="20" fill="#1b1f24" text-anchor="middle" font-weight="700" >Preview / web API (planned)</text>
</svg>
